<?xml version="1.0" encoding="utf-8"?>
<svg data-v-fde0c5aa="" viewBox="0 0 300 300" class="iconLeft" xmlns="http://www.w3.org/2000/svg">
  <defs data-v-fde0c5aa=""/>
  <defs data-v-fde0c5aa=""/>
  <defs data-v-fde0c5aa=""/>
  <g data-v-fde0c5aa="" id="ca91d324-1e48-40db-bd72-8a0cfb006036" stroke="none" fill="#ff7b10" transform="matrix(7.251475, 0, 0, 7.251475, 538.029297, -148.224274)" style="transform-origin: -388.029px 298.224px;">
    <path d="M-396 292.8c.5-.8.5-1.7.1-2.5-.2-.5-.6-.9-1.1-1.1-.3-.2-.6-.3-1-.3h-.4c-.9 0-1.8.5-2.3 1.3-.6 1-.4 2.1.2 3 .2.3.5.5.8.7.4.2.9.4 1.3.4h.2c1-.3 1.8-.7 2.2-1.5zM-395.5 304.9c-.5-.5-1.3-.5-1.8 0s-.5 1.3 0 1.8c1.5 1.4 3.2 2.5 5.1 3.2v-.6c0-.7.2-1.3.5-1.9-1.4-.6-2.7-1.4-3.8-2.5zM-380.5 304.9c-1.1 1.1-2.4 1.9-3.8 2.4.3.6.5 1.2.5 1.9 0 .2 0 .4-.1.6 2-.6 3.7-1.7 5.2-3.2.5-.5.5-1.3 0-1.8-.5-.4-1.3-.4-1.8.1zM-398.5 295.6c-.7 0-1.3-.2-1.9-.6-.2-.1-.3-.2-.5-.3-.4 2-.4 4.1.2 6.1.1.6.7.9 1.2.9h.3c.7-.2 1.1-.9.9-1.5-.4-1.6-.4-3.1-.2-4.6zM-389.9 285.6c-.2-.7-.9-1.1-1.5-.9-2 .5-3.8 1.5-5.3 2.9.2.1.4.2.5.3.6.3 1.1.8 1.4 1.4 1.2-1 2.5-1.7 4-2.1.7-.3 1.1-.9.9-1.6zM-379.8 287.8c.2-.1.4-.2.5-.3-1.5-1.4-3.3-2.3-5.3-2.9-.7-.2-1.3.2-1.5.9-.2.7.2 1.3.9 1.5 1.5.4 2.8 1.1 4 2.1.3-.4.8-.9 1.4-1.3zM-375.2 294.7c-.2.1-.3.2-.5.4-.6.3-1.2.5-1.9.6.3 1.5.2 3.1-.2 4.5-.2.7.2 1.3.9 1.5h.3c.5 0 1.1-.4 1.2-.9.6-2 .7-4.1.2-6.1zM-376.4 293.8c.3-.2.6-.4.8-.7.6-.8.7-2 .2-2.9-.5-.9-1.4-1.3-2.3-1.3h-.3c-.3 0-.7.2-1 .3-.5.3-.8.7-1 1.1-.4.8-.4 1.7.1 2.5s1.3 1.3 2.2 1.3h.1c.3 0 .8-.1 1.2-.3zM-388 306.6c-.9 0-1.8.5-2.2 1.2-.3.4-.4.9-.4 1.5 0 .4.1.7.2 1 .4 1 1.4 1.6 2.5 1.6s2-.7 2.5-1.6c.1-.3.2-.7.2-1 0-.5-.2-1-.4-1.5-.7-.8-1.5-1.2-2.4-1.2z"/>
  </g>
</svg>