<svg data-v-fde0c5aa="" xmlns="http://www.w3.org/2000/svg" viewBox="0 0 300 300" class="iconLeft"><!----><defs data-v-fde0c5aa=""><!----></defs><rect data-v-fde0c5aa="" fill="#FFFFFF" x="0" y="0" width="300px" height="300px" class="logo-background-square"></rect><defs data-v-fde0c5aa=""><!----></defs><g data-v-fde0c5aa="" id="db10617d-0139-42d0-99ea-d6ac20c61124" fill="#ff7b10" transform="matrix(1.9935727062725699,0,0,1.9935727062725699,77.66784401070018,132.46652789623522)"><path d="M4.83 13.96C5.81 13.96 6.82 13.57 7.62 12.87L6.94 11.84C6.41 12.28 5.75 12.64 4.97 12.64C3.61 12.64 2.69 11.68 2.69 10.21C2.69 8.75 3.64 7.77 5.01 7.77C5.63 7.77 6.17 8.01 6.72 8.48L7.48 7.48C6.90 6.90 6.03 6.45 4.94 6.45C2.84 6.45 1.04 7.83 1.04 10.21C1.04 12.59 2.67 13.96 4.83 13.96ZM12.60 13.96C14.42 13.96 16.06 12.59 16.06 10.21C16.06 7.83 14.42 6.45 12.60 6.45C10.79 6.45 9.16 7.83 9.16 10.21C9.16 12.59 10.79 13.96 12.60 13.96ZM12.60 12.64C11.48 12.64 10.81 11.68 10.81 10.21C10.81 8.75 11.48 7.77 12.60 7.77C13.73 7.77 14.41 8.75 14.41 10.21C14.41 11.68 13.73 12.64 12.60 12.64ZM20.50 13.96C21.27 13.96 22.02 13.48 22.57 12.92L22.61 12.92L22.74 13.78L24.05 13.78L24.05 3.63L22.44 3.63L22.44 6.09L22.50 7.32C21.94 6.79 21.39 6.45 20.58 6.45C19.03 6.45 17.56 7.88 17.56 10.21C17.56 12.57 18.72 13.96 20.50 13.96ZM20.87 12.63C19.82 12.63 19.21 11.76 19.21 10.19C19.21 8.68 20.01 7.78 20.97 7.78C21.46 7.78 21.95 7.97 22.44 8.46L22.44 11.73C21.97 12.33 21.45 12.63 20.87 12.63ZM29.82 13.96C30.83 13.96 31.78 13.59 32.51 13.12L31.96 12.11C31.35 12.49 30.74 12.70 30.03 12.70C28.78 12.70 27.82 11.96 27.72 10.64L32.72 10.64C32.75 10.46 32.79 10.15 32.79 9.84C32.79 7.87 31.65 6.45 29.61 6.45C27.80 6.45 26.07 7.88 26.07 10.21C26.07 12.56 27.73 13.96 29.82 13.96ZM27.71 9.53C27.89 8.34 28.71 7.70 29.64 7.70C30.73 7.70 31.32 8.39 31.32 9.53ZM35.03 13.78L36.88 13.78L37.46 10.70C37.62 9.81 37.69 9.18 37.77 8.61L37.83 8.61C37.94 9.35 38.04 10.02 38.15 10.70L38.75 13.78L40.64 13.78L41.92 6.64L40.43 6.64L39.82 10.40C39.70 11.09 39.65 11.76 39.54 12.45L39.48 12.45C39.35 11.76 39.24 11.09 39.10 10.40L38.44 7.28L37.24 7.28L36.61 10.40C36.47 11.07 36.34 11.76 36.25 12.45L36.19 12.45C36.09 11.76 36.02 11.09 35.91 10.40L35.28 6.64L33.68 6.64ZM46.20 13.96C48.02 13.96 49.66 12.59 49.66 10.21C49.66 7.83 48.02 6.45 46.20 6.45C44.39 6.45 42.76 7.83 42.76 10.21C42.76 12.59 44.39 13.96 46.20 13.96ZM46.20 12.64C45.08 12.64 44.41 11.68 44.41 10.21C44.41 8.75 45.08 7.77 46.20 7.77C47.33 7.77 48.01 8.75 48.01 10.21C48.01 11.68 47.33 12.64 46.20 12.64ZM52.23 13.78L53.84 13.78L53.84 9.79C54.54 8.40 55.47 7.88 56.41 7.88C56.94 7.88 57.20 7.95 57.65 8.11L58.00 6.75C57.58 6.55 57.22 6.45 56.66 6.45C55.47 6.45 54.43 7.11 53.73 8.27L53.69 8.27L53.55 6.64L52.23 6.64ZM60.07 13.78L61.68 13.78L61.68 11.90L63 10.49L65.16 13.78L66.92 13.78L63.95 9.51L66.63 6.64L64.85 6.64L61.74 10.01L61.68 10.01L61.68 3.63L60.07 3.63ZM71.82 13.96C72.83 13.96 73.78 13.59 74.51 13.12L73.96 12.11C73.35 12.49 72.74 12.70 72.03 12.70C70.78 12.70 69.82 11.96 69.72 10.64L74.72 10.64C74.75 10.46 74.79 10.15 74.79 9.84C74.79 7.87 73.65 6.45 71.61 6.45C69.80 6.45 68.07 7.88 68.07 10.21C68.07 12.56 69.73 13.96 71.82 13.96ZM69.71 9.53C69.89 8.34 70.71 7.70 71.64 7.70C72.73 7.70 73.32 8.39 73.32 9.53ZM77.43 13.78L79.04 13.78L79.04 9.79C79.74 8.40 80.67 7.88 81.61 7.88C82.14 7.88 82.40 7.95 82.85 8.11L83.20 6.75C82.78 6.55 82.42 6.45 81.86 6.45C80.67 6.45 79.63 7.11 78.93 8.27L78.89 8.27L78.75 6.64L77.43 6.64ZM88.24 13.96C90.33 13.96 91.46 12.96 91.46 11.75C91.46 10.58 90.43 10.04 88.83 9.60C87.72 9.31 86.90 9.02 86.90 8.50C86.90 8.02 87.28 7.67 88.34 7.67C89.12 7.67 89.82 7.97 90.44 8.39L91.18 7.39C90.48 6.92 89.45 6.45 88.33 6.45C86.39 6.45 85.29 7.35 85.29 8.58C85.29 9.65 86.52 10.28 87.82 10.63C89.22 11.00 89.87 11.34 89.87 11.84C89.87 12.36 89.36 12.73 88.28 12.73C87.22 12.73 86.39 12.38 85.62 11.82L84.88 12.84C85.74 13.44 86.95 13.96 88.24 13.96Z"></path></g><defs data-v-fde0c5aa=""><!----></defs><g data-v-fde0c5aa="" id="db10fe0e-315a-498f-add5-cf5d57637e8c" stroke="none" fill="#ff7b10" transform="matrix(0.33551006318752435,0,0,0.33551006318752435,36.59524491802689,133.22449492081978)"><path d="M45.394 22.654c.169-.099.361-.179.581-.233 2.246-.553 4.172-1.488 4.186-1.494.184-.303.28-.74.328-1.052-.573-.751-.839-1.653-.958-2.426-.211-.017-.49-.317-.789-1.387-.41-1.464.025-1.681.394-1.646a3.77 3.77 0 01-.095-2.226c.191-.824.631-1.484 1.125-1.995a5.4 5.4 0 011.041-.87 4.055 4.055 0 011.011-.524c.288-.098.595-.162.919-.177 1.003-.088 1.763.166 2.308.493.815.455 1.124 1.056 1.124 1.056s2.05.146 1.153 4.492c.276.097.47.479.151 1.622-.393 1.406-.751 1.483-.966 1.335-.126.719-.385 1.525-.894 2.213.051.346.163.874.397 1.186 0 0 1.87.846 4.123 1.401.22.054.412.134.581.233a9.456 9.456 0 01-7.861 4.192 9.456 9.456 0 01-7.859-4.193zM31.337 51.262c-.299-.399-.442-1.074-.507-1.516.651-.879.981-1.91 1.142-2.829.275.189.732.09 1.235-1.707.409-1.46.16-1.95-.193-2.073 1.147-5.556-1.474-5.743-1.474-5.743s-.395-.769-1.437-1.351c-.698-.418-1.669-.743-2.951-.631-.415.02-.807.101-1.175.227h-.001a5.163 5.163 0 00-1.293.67 6.946 6.946 0 00-1.331 1.112c-.632.653-1.195 1.497-1.439 2.551a4.818 4.818 0 00.121 2.846c-.471-.045-1.027.232-.504 2.104.383 1.368.739 1.752 1.009 1.774.151.989.492 2.142 1.224 3.102-.062.399-.185.957-.419 1.345-.017.008-2.48 1.203-5.351 1.91a2.736 2.736 0 00-.743.298A12.089 12.089 0 0027.3 58.71a12.09 12.09 0 0010.05-5.359 2.723 2.723 0 00-.743-.298c-2.88-.709-5.27-1.791-5.27-1.791zm58.514 21.594c0 12.802-10.378 23.179-23.179 23.179s-23.18-10.378-23.18-23.179c0-3.926.978-7.624 2.7-10.864l-6.075-3.982a17.11 17.11 0 01-12.816 5.754c-9.473 0-17.153-7.68-17.153-17.153 0-9.473 7.68-17.153 17.153-17.153 3.856 0 7.415 1.273 10.28 3.421l5.837-6.376a13.366 13.366 0 01-3.58-9.121c0-7.41 6.007-13.417 13.417-13.417s13.417 6.007 13.417 13.417-6.007 13.417-13.417 13.417c-2.668 0-5.153-.782-7.242-2.125l-5.94 6.488a17.086 17.086 0 014.381 11.449c0 3.16-.856 6.12-2.347 8.663l5.885 3.857c4.22-5.733 11.014-9.454 18.679-9.454 12.802-.001 23.18 10.377 23.18 23.179zM42.133 17.382c0 6.142 4.979 11.122 11.122 11.122 6.142 0 11.122-4.979 11.122-11.122S59.397 6.26 53.255 6.26c-6.142 0-11.122 4.979-11.122 11.122zm-.612 29.229c0-7.853-6.366-14.219-14.219-14.219s-14.219 6.366-14.219 14.219S19.449 60.83 27.302 60.83s14.219-6.366 14.219-14.219zm44.365 26.245c0-10.612-8.603-19.215-19.215-19.215s-19.215 8.603-19.215 19.215S56.06 92.07 66.672 92.07c10.612 0 19.214-8.602 19.214-19.214zm-8.301 8.033a13.387 13.387 0 00-1.421-.466 1.025 1.025 0 01-.101-.03c-.059-.032-3.347-.895-4.855-1.716-.354-.227-.577-.397-.577-.397l-.136-1.151s4.339.133 6.398-1.97c0 0-2.996-.849-2.458-6.303.539-5.454-.671-10.243-5.055-9.838 0 0-1.9-2.287-5.682-.849-1.299.494-4.783 1.742-4.606 9.3.177 7.557-2.686 7.602-2.686 7.602s1.476 2.147 6.487 2.103l-.022.737c-.006.079-.011.158-.019.237a1.608 1.608 0 01-.023.155c-.07.052-.266.194-.547.374-1.508.82-4.796 1.684-4.855 1.716a.46.46 0 01-.064.02c-.147.041-.532.137-1.163.366-.078.028-.159.059-.244.091-.426.162-.945.379-1.559.667a3.592 3.592 0 00-1.062.753c2.932 4.184 7.79 6.92 13.287 6.92 5.56 0 10.465-2.799 13.386-7.064a3.636 3.636 0 00-.915-.609 23.503 23.503 0 00-1.508-.648z"></path></g><!----></svg>